<svg width="50" height="50" viewBox="0 0 50 50" fill="none" xmlns="http://www.w3.org/2000/svg">
<path d="M39.5833 6.25C40.6884 6.25 41.7482 6.68899 42.5296 7.47039C43.311 8.25179 43.75 9.3116 43.75 10.4167V39.5833C43.75 40.6884 43.311 41.7482 42.5296 42.5296C41.7482 43.311 40.6884 43.75 39.5833 43.75H10.4167C9.3116 43.75 8.25179 43.311 7.47039 42.5296C6.68899 41.7482 6.25 40.6884 6.25 39.5833V10.4167C6.25 9.3116 6.68899 8.25179 7.47039 7.47039C8.25179 6.68899 9.3116 6.25 10.4167 6.25H39.5833ZM34.7917 19.4792C35.25 19.0417 35.25 18.3125 34.7917 17.875L32.125 15.2083C32.0215 15.0998 31.897 15.0134 31.7592 14.9544C31.6213 14.8953 31.4729 14.8649 31.3229 14.8649C31.1729 14.8649 31.0245 14.8953 30.8867 14.9544C30.7488 15.0134 30.6243 15.0998 30.5208 15.2083L28.4375 17.2917L32.7083 21.5625L34.7917 19.4792ZM14.5833 31.125V35.4167H18.875L31.5 22.7917L27.2083 18.5L14.5833 31.125Z" fill="#6174DB"/>
</svg>
