<svg width="50" height="50" viewBox="0 0 50 50" fill="none" xmlns="http://www.w3.org/2000/svg">
<rect x="6" y="6" width="37.5" height="37.5" rx="5" fill="#F5502C"/>
<path d="M17.5132 18.3355H16.3071V35.0132C16.3071 35.6936 16.5612 36.3463 17.0136 36.8274C17.466 37.3086 18.0796 37.5789 18.7193 37.5789H30.7807C31.4205 37.5789 32.0341 37.3086 32.4865 36.8274C32.9389 36.3463 33.193 35.6936 33.193 35.0132V18.3355H17.5132ZM22.3378 33.7303H19.9255V22.1842H22.3378V33.7303ZM29.5746 33.7303H27.1623V22.1842H29.5746V33.7303ZM30.32 14.4868L28.3685 11.9211H21.1316L19.1801 14.4868H13.8948V17.0526H35.6053V14.4868H30.32Z" fill="white"/>
</svg>
