<svg width="30" height="30" viewBox="0 0 30 30" fill="none" xmlns="http://www.w3.org/2000/svg">
<path d="M15 30C17.0518 30 18.9837 29.6066 20.7959 28.8201C22.6079 28.0433 24.1995 26.964 25.5705 25.5827C26.9511 24.2014 28.0345 22.6091 28.8207 20.8058C29.6069 18.9928 30 17.0552 30 14.9928C30 12.9401 29.6069 11.012 28.8207 9.20865C28.0345 7.39569 26.9511 5.79858 25.5705 4.41729C24.1995 3.03598 22.6032 1.95684 20.7814 1.17988C18.9694 0.3933 17.0374 1.52588e-05 14.9857 1.52588e-05C12.9339 1.52588e-05 11.002 0.3933 9.18989 1.17988C7.3778 1.95684 5.78144 3.03598 4.40082 4.41729C3.02976 5.79858 1.95115 7.39569 1.16496 9.20865C0.388349 11.012 4.57764e-05 12.9401 4.57764e-05 14.9928C4.57764e-05 17.0552 0.388349 18.9928 1.16496 20.8058C1.95115 22.6091 3.03456 24.2014 4.4152 25.5827C5.79582 26.964 7.39218 28.0433 9.20427 28.8201C11.0163 29.6066 12.9483 30 15 30ZM13.4037 22.1295C13.1065 22.1295 12.838 22.0671 12.5983 21.9424C12.3586 21.8081 12.1333 21.6068 11.9224 21.3381L8.45643 17.1655C8.3222 16.9832 8.21673 16.8058 8.14002 16.6331C8.07291 16.4509 8.03935 16.2638 8.03935 16.072C8.03935 15.6691 8.17838 15.3286 8.45643 15.0504C8.73447 14.7626 9.07484 14.6187 9.47751 14.6187C9.71721 14.6187 9.93293 14.6715 10.1247 14.777C10.3164 14.8729 10.5082 15.0408 10.7 15.2806L13.3605 18.6188L19.1564 9.35253C19.5015 8.80577 19.9281 8.53239 20.4362 8.53239C20.8199 8.53239 21.1602 8.6571 21.4574 8.90649C21.7641 9.15588 21.9177 9.48202 21.9177 9.8849C21.9177 10.0672 21.8792 10.2494 21.8025 10.4317C21.7354 10.6139 21.6492 10.7866 21.5436 10.9497L14.8275 21.3381C14.6549 21.5875 14.444 21.7841 14.1947 21.9281C13.955 22.0624 13.6913 22.1295 13.4037 22.1295Z" fill="#3D53C7"/>
</svg>
